<svg width="24" height="24" fill="none" xmlns="http://www.w3.org/2000/svg"><path d="M12 0C5.374 0 0 5.374 0 12s5.374 12 12 12 12-5.374 12-12S18.626 0 12 0zm6.02 9.182v1.624a5.656 5.656 0 01-3.47-1.179l.012 5.002a4.189 4.189 0 01-1.256 2.98 4.276 4.276 0 01-3.035 1.243 4.291 4.291 0 01-3.034-1.242 4.192 4.192 0 01-1.249-3.266 4.197 4.197 0 011.059-2.532 4.29 4.29 0 013.224-1.442c.218 0 .434.016.645.048v2.271a2.027 2.027 0 00-2.668 1.952c.01.725.407 1.358.99 1.707a2.017 2.017 0 001.678.185 2.025 2.025 0 001.392-1.922l.002-3.349V5.148h2.238a3.46 3.46 0 003.466 3.431h.006v.603z" fill="#fff"/></svg>