<svg width="200" height="200" fill="none" xmlns="http://www.w3.org/2000/svg"><g clip-path="url(#clip0)"><path d="M142.968 166.129c15.39-12.163 31.699-23.304 44.245-38.775 1.327-1.573.665-4.865-1.756-4.794-19.085-.892-38.019-2.111-56.945-.342-3.14.334-3.98 4.72-1.032 6.087 5.567 2.582 10.983 5.492 16.007 8.816-35.65 12.517-76.438 28.82-102.92-9.326-11.643-16.94-16.646-38.76-10.37-58.73C36.93 48.11 56.466 36.875 76.32 30.96c1.917-.702 1.343-3.754-.75-3.531-46.81 6.546-67.697 54.163-45.898 95.112 10.691 20.279 27.345 34.568 51.055 36.212 21.203 1.476 42.839-6.995 62.558-14.763-2.406 6.047-4.158 12.398-5.102 18.725-.56 2.924 2.499 5.337 4.785 3.413zm7.916-27.368c-.047-1.614-1.118-2.309-2.492-2.35l-.327-.151c-2.604-3.397-5.751-6.05-9.05-8.375 13.063-.708 26.324-.129 39.258.298-9.462 10.535-20.848 18.784-31.819 27.425 2.014-5.632 4.117-11.024 4.43-16.847z" fill="#fff"/></g><defs><clipPath id="clip0"><path fill="#fff" transform="rotate(69.879 72.874 104.31)" d="M0 0h155.222v155.222H0z"/></clipPath></defs></svg>