<svg width="20" height="20" fill="none" xmlns="http://www.w3.org/2000/svg"><path d="M5.833 15c-.917 0-1.658.75-1.658 1.667 0 .916.741 1.666 1.658 1.666.917 0 1.667-.75 1.667-1.666C7.5 15.75 6.75 15 5.833 15zm-5-12.5c0 .458.375.833.833.833H2.5l3 6.325-1.125 2.034c-.609 1.116.191 2.475 1.458 2.475H15a.836.836 0 00.833-.834A.836.836 0 0015 12.5H5.833l.917-1.667h6.208c.625 0 1.175-.341 1.458-.858L17.4 4.567a.83.83 0 00-.725-1.234H4.34l-.558-1.191a.827.827 0 00-.75-.475H1.666a.836.836 0 00-.833.833zM14.166 15c-.916 0-1.658.75-1.658 1.667 0 .916.742 1.666 1.658 1.666.917 0 1.667-.75 1.667-1.666 0-.917-.75-1.667-1.667-1.667z" fill="#fff"/></svg>