<svg width="120" height="120" fill="none" xmlns="http://www.w3.org/2000/svg"><circle opacity=".2" cx="60" cy="60" r="60" fill="#fff"/><circle cx="60.5" cy="60.5" r="36.5" fill="#BC1F29"/><path fill-rule="evenodd" clip-rule="evenodd" d="M49.228 66.207c0 .02 0 .042-.02.083l.427-.247.02-.02v-.02l-.244-.432-.02-.02h-.02l-.428.246-.02.02c.04-.02.08-.02.08-.02l.225.41zm19.435-22.154c.102-1.11 3.114-1.93 4.111.698.59 1.601.041 3.347-.508 4.804.06.041.101.083.122.103.875.493-.245 2.3-.916 2.916-.122 1.293-.265 1.642.285 2.874-.713-.02-1.16-.39-1.445-1.006a2.086 2.086 0 00-.143.308c-.122.288-.183.555-.162.822.142.903.468 1.293.895 1.683 1.587 1.643-.366 3.922 2.544 9.466-.102.02-.204.04-.326.061.204.308.55.616.774.904 1.445 1.827.915 4.435 1.546 5.893.224.513.428.616.692.903.041.02.061.041.102.082.366.472.061.863-.102 1.684-.081.452-.122.821-.142 1.067.04.165.081.226.081.226v.103h-.59v-.103s.102-.123.143-.575v-.184l-.02-.555c0-.061-.021-.102-.021-.102h-.02c-.448.143-.469.965-.611 1.52l-1.71-.063c-.081-.492.448-.533.855-.718.04-.822.183-2.444.082-3.183-.082-.595-.55-1.807-.774-2.382-.509-1.293-1.262-3.223-2.157-4.23l-.224-.04c-.264.02-.53.02-.834.04a4.5 4.5 0 01-.753 0c-1.059 0-2.056-.06-2.89-.143.02 1.088-.163 1.622-.672 2.649-.346.718-.855 1.499-1.14 2.279-.346.944-.773 1.827-.122 2.566.02.041.061.062.082.103.366.472.06.862-.102 1.684-.02.082-.02.164-.04.246-.062.329-.082.616-.102.822.04.164.08.225.08.225v.103h-.589V77.5s.101-.123.142-.575c.04-.451-.02-.841-.02-.841-.59.43-.326.862-.59 1.498-.448.042-1.445.124-1.791-.061-.061-.637.346-.41.916-.698.223-3.265.508-3.018 1.099-5.585a98.38 98.38 0 00.61-2.71c.102-.473.285-.945.224-1.417a1.472 1.472 0 01-.02-.452c.04-.39.834-3.244 1.668-5.38.753-1.991.733-3.14.835-3.675.06-.37.142-1.827 0-2.423-.204.247-1.547 1.294-1.974 1.725-.448.431-.875.904-1.038 1.17-.285.473.04.575.163.863.224.493.142.698.122.8-.041.042-.082-.205-.285-.143-.204.062-.326.37-.468.472-.183.041-.163-.123-.265-.123-.102 0-.305.144-.366.123a1.653 1.653 0 00-.224-.061c-.061-.021-.122.061-.244.04h-.041c-.142-.184-.366-.164-.326-.39 0-.02 0-.04.02-.04v-.021c.041-.164.225-.596.347-.842.102-.205.325-.513.447-.719.123-.184.306-.37.428-.554 1.017-1.335 2.178-2.977 3.378-4.086-.142-.185-.366-.554-.386-.903 0-.267.183-.514.366-.78a3.08 3.08 0 00.305-.473c.122-.205.102-.821.102-.862 0-.226.04-.452.203-.555.346-.226 1.384-.328 1.527-.575.163-.246.203-.677.183-.76 0 0-.509.185-.55-.04-.04-.226-.671-1.15-.61-1.684 0-.082.081-.246.081-.37-.04-.37-.02-.739 0-.82.041-.104-.183.102-.183.369-.264.123-.956-1.52.692-1.787.102-.04.163-.082.244-.102zM52.586 76.268c-.285-.184-.265.041-.652-.164-.529-.287-.814-2.033-.875-2.73-.06-.658-.06-.986.489-1.233 3.52-1.437 2.014.062 2.747 1.643.183.37.489.8.55 1.211-.143.452-.794 1.068-1.343 1.479-.062.04-.123.082-.184.143-.101.103-.203.247-.06.35.182.123.284.123.386.164.163.02.468.144.794-.267.264-.35.55-.555 1.017-1.027.326-.349 1.018-.718.753-1.478-.163-.452-.264-.288-.285-.986 0-.493.061-.677.183-1.067.55.184 1.14.677 1.567.985.55.39 1.303.267 1.893.575 1.16.616 1.14 2.34 2.625 2.464.062 0 .062-.164.062-.246-.02-.72-.102-.74-.53-1.048-.691-.492-.753-1.499-1.465-1.95-1.75-1.13-1.587-1.5-2.157-3.142-.224-.657-.407-.595-.733-.985-.427-.555.265-.78-.203-1.397-.53.103-.183.39-.753.411l-3.663-.144c-1.242-.02-2.626-.143-3.4-1.088a1.862 1.862 0 01-.223-.328l.02-.02c.041 0 .082 0 .102-.021l.427-.247c.041-.02.062-.061.062-.082.02-.04 0-.082-.02-.123l-.245-.431c-.02-.041-.061-.062-.081-.062-.041-.02-.082 0-.123.02l-.427.247c-.04.02-.061.062-.061.082v.103c-.02 0-.04.02-.061.02-.122-.102-.244-.184-.326-.287-.346-.37-.55-.76-1.261-1.17-.346-.206-.53-.493-.815-.72-.325-.245-.63-.553-.895-.718l-.122.39c-.02.083-.02.041 0 .165.02.061.224.513.305.718-.488.493-.671.226-1.017 1.11-.224.574-.876.615-1.059 1.21.468 1.274 1.852.226 2.85.267.04.083.08.165.122.247-.02 0-.041.02-.061.02l-.02.041.223.39c.04.021.081.042.142.042.285.534.428.985.204 2.012-.366 1.725.346 1.273-.814 2.772l-1.608 1.889c-.325.308-.529.575-.834.965-.387.492-.835.41-.712 1.047.346.123.65.164.956-.041.285-.185.265-.431.53-.657.467-.39.59-.288 1.403-1.068a8.556 8.556 0 011.283-1.088c.203-.144.488-.39.63-.575.326-.41.041-.452.51-.74.264.083.325.268.691.411.916.35.651 1.006 1.242 2.259.529 1.15 1.038 2.094 2.279 2.3.163.02.53.061.53-.062s.04-.226-.225-.472c-.122-.164-.203-.247-.264-.288z" fill="#fff"/><path fill-rule="evenodd" clip-rule="evenodd" d="M49.485 65.889c2.423-.912 10.007-4.362 11.944-4.679 1.054-.178 1.917-.377 2.697-.833.316-.178.484-.356.526-.515-.042.04-.084-.198-.294-.139-.19.06-.338.337-.485.456-.4.337-1.285.575-1.938.615.316-.218.569-.417.758-.654-.147-.179-.379-.16-.337-.377-.21.912-1.77 1.11-2.675 1.427-2.401.853-3.581 1.467-6.256 2.558-1.096.456-3.034 1.368-4.108 1.705-.084.02-.148.04-.127.079.085.1.274.377.295.357zm12.935-6.186c0 .02 0 .02 0 0z" fill="#fff"/></svg>