<svg width="112" height="106" fill="none" xmlns="http://www.w3.org/2000/svg"><path fill-rule="evenodd" clip-rule="evenodd" d="M34.279 49.8c0 .044 0 .088-.045.176l.926-.53.044-.043v-.044l-.529-.925-.044-.044h-.044l-.925.528-.044.044c.088-.044.176-.044.176-.044l.485.881zM76.356 2.258c.22-2.38 6.74-4.142 8.9 1.498 1.277 3.437.088 7.182-1.102 10.31.132.088.22.176.265.22 1.894 1.058-.53 4.935-1.983 6.257-.265 2.776-.573 3.524.617 6.168-1.542-.044-2.512-.837-3.129-2.159-.132.22-.22.44-.308.661-.264.617-.397 1.19-.352 1.762.308 1.94 1.013 2.776 1.938 3.613 3.437 3.525-.793 8.416 5.508 20.312-.22.044-.44.088-.705.132.44.661 1.19 1.322 1.674 1.939 3.128 3.921 1.983 9.517 3.349 12.645.484 1.101.925 1.322 1.498 1.938a.796.796 0 01.22.177c.793 1.013.132 1.85-.22 3.613a24.15 24.15 0 00-.309 2.29c.088.353.176.485.176.485v.22h-1.277v-.22s.22-.264.308-1.233v-.397l-.044-1.19a.534.534 0 00-.044-.22h-.044c-.97.309-1.014 2.071-1.322 3.26l-3.7-.132c-.177-1.057.968-1.145 1.85-1.542.088-1.762.396-5.243.176-6.829-.176-1.278-1.19-3.877-1.674-5.11-1.102-2.776-2.732-6.918-4.67-9.077l-.485-.088c-.573.044-1.146.044-1.807.088-.573.044-1.145.044-1.63 0a65.37 65.37 0 01-6.257-.308c.044 2.335-.352 3.48-1.454 5.683-.749 1.542-1.85 3.217-2.467 4.89-.749 2.028-1.674 3.922-.264 5.508.044.088.132.132.176.22.793 1.014.132 1.851-.22 3.614-.044.176-.044.352-.088.528-.133.705-.177 1.322-.22 1.763.087.352.175.484.175.484v.22h-1.277v-.22s.22-.264.308-1.233a8.216 8.216 0 00-.044-1.807c-1.278.925-.705 1.85-1.278 3.216-.969.089-3.128.265-3.877-.132-.132-1.365.75-.88 1.983-1.498.485-7.005 1.101-6.477 2.379-11.984.485-1.983.925-3.965 1.322-5.816.22-1.013.617-2.027.484-3.04a3.132 3.132 0 01-.044-.97c.088-.836 1.807-6.96 3.613-11.543 1.63-4.274 1.587-6.741 1.807-7.887.132-.793.308-3.921 0-5.199-.44.529-3.349 2.776-4.274 3.701-.97.926-1.895 1.939-2.247 2.512-.617 1.013.088 1.233.352 1.85.485 1.058.309 1.498.265 1.719-.088.088-.176-.441-.617-.309-.44.132-.705.793-1.013 1.014-.397.088-.353-.265-.573-.265-.22 0-.661.309-.793.265-.133-.044-.265-.089-.485-.133-.132-.044-.264.133-.529.088h-.088c-.308-.396-.793-.352-.705-.837 0-.044 0-.088.044-.088v-.044c.088-.352.485-1.278.75-1.806.22-.44.704-1.102.969-1.542.264-.397.66-.794.925-1.19 2.203-2.864 4.714-6.389 7.314-8.768-.309-.396-.793-1.19-.837-1.939 0-.572.396-1.101.793-1.674.308-.396.44-.617.66-1.013.265-.44.221-1.763.221-1.85 0-.485.088-.97.44-1.19.75-.485 2.997-.705 3.305-1.234.352-.529.44-1.454.397-1.63 0 0-1.102.396-1.19-.088-.088-.485-1.454-2.468-1.322-3.613 0-.176.176-.529.176-.793-.088-.793-.044-1.586 0-1.763.089-.22-.396.22-.396.793-.573.265-2.07-3.26 1.498-3.833.22-.088.352-.176.529-.22zm-34.808 69.13c-.617-.397-.572.088-1.41-.353-1.145-.617-1.762-4.362-1.894-5.86-.132-1.41-.132-2.115 1.057-2.643 7.623-3.084 4.362.132 5.948 3.525.397.792 1.058 1.718 1.19 2.599-.308.97-1.718 2.291-2.908 3.172a2.42 2.42 0 00-.396.309c-.22.22-.441.528-.133.749.397.264.617.264.837.352.353.044 1.014.309 1.719-.573.573-.749 1.19-1.19 2.203-2.203.705-.749 2.203-1.542 1.63-3.172-.352-.97-.573-.617-.617-2.115 0-1.057.132-1.454.397-2.29 1.19.396 2.467 1.453 3.392 2.114 1.19.837 2.82.573 4.098 1.234 2.511 1.322 2.467 5.023 5.684 5.287.132 0 .132-.353.132-.529-.044-1.542-.22-1.586-1.146-2.247-1.498-1.057-1.63-3.216-3.172-4.186-3.79-2.423-3.437-3.216-4.67-6.74-.485-1.41-.882-1.278-1.587-2.116-.925-1.19.573-1.674-.44-2.996-1.146.22-.397.837-1.63.882L41.9 53.28c-2.688-.044-5.684-.308-7.358-2.335-.176-.22-.353-.44-.485-.705l.044-.044c.088 0 .177 0 .22-.044l.926-.529c.088-.044.132-.132.132-.176.044-.088 0-.176-.044-.264l-.529-.926c-.044-.088-.132-.132-.176-.132-.088-.044-.176 0-.264.044l-.926.529c-.088.044-.132.132-.132.176v.22c-.044 0-.088.044-.132.044-.264-.22-.529-.396-.705-.616-.749-.793-1.19-1.63-2.732-2.512-.749-.44-1.145-1.057-1.762-1.542-.705-.529-1.366-1.19-1.939-1.542l-.264.837c-.044.176-.044.088 0 .353.044.132.485 1.101.66 1.542-1.057 1.057-1.453.484-2.202 2.379-.485 1.234-1.895 1.322-2.291 2.6 1.013 2.731 4.01.484 6.168.572l.265.529c-.045 0-.089.044-.133.044l-.044.088.485.837a.636.636 0 00.308.088c.617 1.146.926 2.115.44 4.318-.792 3.701.75 2.732-1.762 5.948l-3.48 4.054c-.705.66-1.146 1.234-1.807 2.07-.837 1.058-1.806.882-1.542 2.248.75.264 1.41.352 2.071-.088.617-.397.573-.926 1.146-1.41 1.013-.837 1.277-.617 3.04-2.291a18.49 18.49 0 012.775-2.336c.441-.308 1.058-.837 1.366-1.233.705-.881.088-.97 1.102-1.586.573.176.705.572 1.498.88 1.983.75 1.41 2.16 2.688 4.847 1.145 2.468 2.247 4.495 4.934 4.935.353.044 1.146.132 1.146-.132s.088-.485-.485-1.014c-.264-.352-.44-.528-.573-.616z" fill="#BC1F29"/><path fill-rule="evenodd" clip-rule="evenodd" d="M35.116 49.403c5.066-2.027 20.928-9.693 24.982-10.398 2.203-.397 4.009-.837 5.64-1.85.66-.397 1.013-.794 1.1-1.146-.087.088-.175-.44-.616-.309-.397.132-.705.75-1.013 1.014-.838.749-2.688 1.277-4.054 1.366.66-.485 1.19-.926 1.586-1.454-.308-.397-.793-.353-.705-.838-.44 2.027-3.7 2.468-5.595 3.173-5.023 1.894-7.49 3.26-13.086 5.683-2.291 1.014-6.345 3.04-8.592 3.79-.176.044-.308.088-.264.176.176.22.573.837.617.793zm27.052-13.747c0 .044 0 .044 0 0zm7.226 47.761c1.498-2.864 4.45-4.538 7.667-4.538 3.7 0 5.33 3.04 5.33 6.344 0 4.142-1.453 8.24-3.788 11.632-2.644 3.833-6.61 7.49-11.544 7.49-3.437 0-5.243-2.908-5.243-6.08 0-3.436 1.057-6.741 2.82-9.649 1.145-1.85 2.908-4.053 4.758-5.199zm2.952-1.322c.925-.352 1.895-.66 2.732-.66.617 0 1.718-.045 1.718.837 0 .352-.22.616-.573.616-.396 0-.704-.22-1.145-.22-1.278 0-3.128.705-4.054 1.63-.044.265.044.529-.044.881-.176.573-.793.793-1.365.793-.22 0-.397-.088-.485-.264a16.028 16.028 0 00-2.203 3.393c-1.058 2.29-1.41 4.846-1.41 7.358 0 2.555.793 5.287 3.833 5.287 2.688 0 4.803-2.115 6.257-4.142 2.159-2.996 3.48-8.063 3.48-11.676 0-2.335-.66-5.022-3.525-5.022a4.8 4.8 0 00-2.687.793c-.22.132-.353.264-.529.396z" fill="#fff"/><path d="M22.515 97.428c0 2.291-.265 3.921-.838 4.935-.749 1.366-2.159 2.071-4.273 2.071-2.071 0-3.481-.705-4.23-2.071-.529-.97-.793-2.644-.793-4.935V90.07c0-2.291.264-3.965.793-4.935.749-1.366 2.159-2.07 4.23-2.07.969 0 1.762.132 2.379.352 1.806.66 2.688 2.908 2.688 6.653v7.358h.044zm-3.701 1.102v-9.561c0-.661-.089-1.146-.22-1.41-.177-.397-.574-.573-1.19-.573-.573 0-.97.176-1.19.529-.176.264-.22.704-.22 1.321v9.87c0 .617.088 1.057.22 1.322.176.352.573.528 1.19.528.616 0 1.013-.176 1.233-.572.133-.265.177-.75.177-1.454zm16.258-.397c0 2.159-.265 3.613-.794 4.45-.704 1.057-2.026 1.586-4.053 1.586h-5.243V83.285h5.11c1.94 0 3.217.396 3.878 1.145.573.705.881 2.071.881 4.01 0 1.762-.572 3.128-1.674 4.097.793.705 1.322 1.542 1.586 2.512.22.793.309 1.806.309 3.084zm-3.834-9.209c0-1.19-.44-1.762-1.366-1.762H28.42v3.965h.793c1.366-.044 2.026-.748 2.026-2.203zm.22 8.856c0-2.114-.616-3.172-1.85-3.172h-1.19v5.684h.926c.881 0 1.454-.22 1.718-.617.264-.352.397-.97.397-1.894zm15.95-.352c0 2.291-.264 3.921-.837 4.935-.749 1.366-2.159 2.071-4.274 2.071-2.07 0-3.48-.705-4.23-2.071-.528-.97-.792-2.644-.792-4.935V90.07c0-2.291.264-3.965.793-4.935.749-1.366 2.159-2.07 4.23-2.07.969 0 1.762.132 2.379.352 1.806.66 2.687 2.908 2.687 6.653v7.358h.044zm-3.7 1.102v-9.561c0-.661-.089-1.146-.221-1.41-.176-.397-.573-.573-1.19-.573-.572 0-.969.176-1.19.529-.175.264-.22.704-.22 1.321v9.87c0 .617.089 1.057.22 1.322.177.352.574.528 1.19.528.617 0 1.014-.176 1.234-.572.132-.265.176-.75.176-1.454zm16.962 5.683h-3.172v-1.85h-6.477v1.85H47.85v-5.727h1.278c0-2.38.088-2.644.22-4.407.44-5.154 2.07-8.723 4.846-10.794h4.891v15.2h1.498v5.728h.088zm-5.11-5.727V87.03c-.53.573-.926 1.19-1.322 1.85-1.014 1.895-1.542 3.878-1.542 9.561h2.863v.044z" fill="#BC1F29"/><path fill-rule="evenodd" clip-rule="evenodd" d="M96.888 104.257a6.593 6.593 0 01-3.217.837c-2.511 0-4.097-3.304-4.802-5.287-.22-.617-.441-1.233-.617-1.85-.397-1.19-.793-2.423-1.19-3.657-.176-.529-.352-1.146-.529-1.674-.22.308-.484.616-.66.925-.617.881-1.102 1.85-1.499 2.82-.44 1.19-.88 2.423-1.233 3.613-.176.484-.309 1.233-.529 1.63-.132.264-.264.528-.44.749-.441.573-1.322 1.233-2.071 1.233-.617 0-1.058-.308-1.058-.969 0-.264.132-.705.22-.925.177-.573.353-1.19.53-1.763.528-1.762 1.1-3.524 1.63-5.33 1.19-3.79 2.29-7.667 3.568-11.412.133-.44.309-.882.485-1.322.22-.573.529-1.41.837-1.895.573-.749 1.939-1.321 2.908-1.321.44 0 .485.44.485.793 0 .396-.485 1.41-.661 1.806-.132.309-.309.661-.397.97-.617 1.718-1.19 3.48-1.762 5.199-.44 1.365-.881 2.731-1.322 4.141l.397-.529c.132-.837.396-1.454 1.013-2.07a1.993 1.993 0 011.102-.53c1.762-1.938 3.524-3.876 5.375-5.683 1.41-1.366 3.921-3.084 5.948-3.084.705 0 1.586.176 1.586 1.101 0 1.719-2.07 3.481-3.48 4.142-.133.088-.353.044-.441-.132l-.132-.22a.339.339 0 01.044-.441c.308-.353.705-.925.705-1.41 0-.22-.133-.264-.353-.264-1.145 0-2.732 1.278-3.525 2.027-1.542 1.498-2.996 3.084-4.45 4.67.265.529.485 1.19.661 1.762.661 2.203 1.454 4.362 2.247 6.521.485 1.278 1.85 4.935 3.57 4.935.484 0 .924-.088 1.32-.265.397-.132.662-.308.618-.044-.044.265-.22 1.807-.882 2.203z" fill="#fff"/><path d="M9.913 104.169H6.345V87.074H3.569v17.095H0v-20.84h9.913v20.84z" fill="#BC1F29"/><path fill-rule="evenodd" clip-rule="evenodd" d="M103.232 98.177c0-.22.132-.705.22-.925.177-.617.353-1.234.529-1.895l1.586-5.42c.749-2.51 1.498-4.978 2.203-7.49.265-.836.705-2.423 1.366-3.04.441-.396.573-.528 1.19-.66h.044c.352-.044.705-.088 1.013-.132h.044c.353 0 .485.264.573.572v.22c-.573 1.455-1.146 2.953-1.586 4.45-.441 1.543-.925 3.04-1.41 4.583a156.981 156.981 0 01-1.983 5.948c-.44 1.145-.881 2.335-1.454 3.437-.264.528-.705 1.277-1.41 1.321-.528-.088-.925-.396-.925-.969zm-2.027 4.362c.265-1.234.97-1.983 2.468-2.071 1.321-.088 1.498.793 1.454 1.895-.088 1.41-.97 2.511-2.424 2.599-1.41.088-1.718-1.277-1.498-2.423z" fill="#fff"/></svg>