<svg width="30" height="31" fill="none" xmlns="http://www.w3.org/2000/svg"><path d="M8.75 23a2.497 2.497 0 00-2.488 2.5c0 1.375 1.113 2.5 2.488 2.5s2.5-1.125 2.5-2.5-1.125-2.5-2.5-2.5zM1.25 4.25c0 .687.562 1.25 1.25 1.25h1.25l4.5 9.488-1.688 3.05c-.912 1.674.288 3.712 2.188 3.712H22.5c.687 0 1.25-.563 1.25-1.25 0-.688-.563-1.25-1.25-1.25H8.75l1.375-2.5h9.312c.938 0 1.763-.512 2.188-1.287L26.1 7.35a1.245 1.245 0 00-1.088-1.85h-18.5l-.837-1.788A1.24 1.24 0 004.55 3H2.5c-.688 0-1.25.562-1.25 1.25zm20 18.75a2.497 2.497 0 00-2.488 2.5c0 1.375 1.113 2.5 2.488 2.5s2.5-1.125 2.5-2.5-1.125-2.5-2.5-2.5z" fill="#fff"/></svg>