<svg width="445" height="240" fill="none" xmlns="http://www.w3.org/2000/svg"><path d="M57.302 234.486c-1.98-2.263-2.971-5.09-2.971-8.484 0-3.111 1.273-10.18 3.82-21.209 1.698-9.897 3.962-20.219 6.791-30.965l2.972-13.573c1.98-4.525 3.537-8.908 4.669-13.15 1.415-4.525 2.264-7.352 2.546-8.484-1.132 0-3.537.283-7.215.849-3.396.565-7.216 1.696-11.46 3.393-10.188 2.545-18.536 3.818-25.044 3.818-6.225 0-11.46-1.131-15.705-3.394-3.962-2.262-7.499-5.938-10.611-11.028-1.415-1.414-2.689-3.818-3.82-7.211A41.814 41.814 0 010 114.867c0-3.959.707-6.504 2.122-7.635 1.415-3.11 2.689-5.938 3.82-8.483 1.415-2.545 2.547-4.808 3.396-6.787 3.113-6.222 4.67-9.756 4.67-10.605 0-.565.282-1.413.848-2.545.849-1.414 1.274-2.545 1.274-3.393 2.546-5.373 10.328-17.674 23.345-36.904 13.3-19.512 22.072-31.389 26.316-35.63 2.547-1.132 4.952-1.98 7.216-2.546 2.547-.565 4.245-.424 5.094.425 1.132 2.545 2.263 6.08 3.395 10.604 1.132 4.524 1.274 6.787.425 6.787-.283 0-.708.141-1.274.424-.566.283-.849.848-.849 1.697 0 1.696-4.527 7.918-13.582 18.664C49.803 61.28 36.928 81.075 27.59 98.325c-3.679 10.745-5.518 17.532-5.518 20.36 0 1.414.424 2.545 1.273 3.393 1.698.566 3.82.849 6.367.849 6.792 0 15.988-1.697 27.59-5.09 13.583-2.828 21.93-4.949 25.043-6.363 2.264 0 4.245-.424 5.943-1.273 1.98-.848 2.97-1.838 2.97-2.969 0-.848.991-3.393 2.972-7.635 2.264-4.524 3.679-7.777 4.245-9.756l6.367-12.725c5.659-11.877 9.621-19.654 11.885-23.33 5.093-11.029 8.489-18.805 10.187-23.33 1.98-4.807 3.537-8.342 4.669-10.604 1.415-2.546 2.405-3.818 2.971-3.818 1.415 0 3.113.566 5.093 1.697 1.981 1.13 3.396 2.686 4.245 4.666 1.132 1.13 1.981 2.262 2.547 3.393a6.2 6.2 0 011.273 3.818c0 1.414-.849 3.817-2.547 7.21-.849 3.394-1.839 6.505-2.971 9.333-1.132 2.827-2.688 6.08-4.669 9.756l-6.791 13.15c-7.358 14.421-15.847 32.52-25.468 54.294-9.338 21.492-15.563 37.186-18.676 47.084-3.679 10.463-6.65 19.371-8.914 26.723-2.264 7.352-3.395 12.725-3.395 16.119 0 2.545.707 5.231 2.122 8.059.283 5.09-.99 9.473-3.82 13.15-2.83 3.676-5.801 5.514-8.914 5.514-3.396 0-5.518-1.838-6.367-5.514zm132.939-5.939c-3.113 0-8.348-1.979-15.705-5.938-7.357-3.959-13.158-7.777-17.403-11.453-7.923-7.635-14.29-17.25-19.101-28.844-4.527-11.877-6.791-23.896-6.791-36.055 0-2.545.283-6.646.849-12.302 3.113-17.815 9.763-35.49 19.95-53.022 10.47-17.815 22.637-32.662 36.503-44.539 7.357-6.504 14.007-11.452 19.95-14.846 6.225-3.676 13.441-6.504 21.647-8.483 3.962-1.131 10.187-1.697 18.677-1.697 5.376 0 10.894 1.131 16.553 3.393 5.943 2.263 10.895 5.09 14.857 8.484 3.961 3.11 5.942 6.08 5.942 8.908 0 2.545-.283 4.1-.849 4.666-.283.565-1.415.424-3.396-.425h-4.244l4.244 12.302c1.132 2.545 2.123 5.655 2.972 9.332.849 3.676 1.273 7.07 1.273 10.18 0 5.09-1.556 14.987-4.669 29.692-3.113 14.422-5.801 24.178-8.065 29.269-1.132 2.262-1.698 5.231-1.698 8.907l-10.611 23.33c-1.132.849-1.981 1.838-2.547 2.969-.566 1.132-.424 2.121.425 2.97 0 1.131-1.557 4.383-4.669 9.756-2.83 5.09-4.67 7.635-5.518 7.635-.283 0-.708.141-1.274.424-.566 0-.849.424-.849 1.273 0 1.131-1.981 4.1-5.942 8.907-3.679 4.808-7.923 9.615-12.734 14.422-4.245 4.525-10.612 9.191-19.101 13.998-8.206 4.525-14.431 6.787-18.676 6.787zm-1.273-26.723c6.791 0 12.167-1.98 16.129-5.939 5.377-3.676 11.319-9.331 17.827-16.967 6.792-7.918 11.744-15.411 14.857-22.481 2.829-3.959 5.093-8.059 6.791-12.301 1.981-4.242 5.093-12.584 9.338-25.027 1.981-2.828 3.396-6.362 4.245-10.604 1.132-4.525 1.698-8.625 1.698-12.301 0-12.443.707-21.21 2.122-26.3 0-7.917-.142-12.866-.425-14.846-.283-2.262-1.415-4.524-3.395-6.786-3.113-2.546-6.509-3.818-10.187-3.818-1.981 0-5.66 1.131-11.036 3.393-5.377 1.98-9.197 3.676-11.461 5.09-1.698.566-2.971.849-3.82.849-1.698 0-3.254-.283-4.669-.849-1.132-.848-1.698-1.838-1.698-2.969 0-1.98-.849-2.97-2.547-2.97-2.263 0-5.376 1.698-9.338 5.091-3.961 3.394-8.206 7.777-12.734 13.15-4.527 4.524-8.772 9.614-12.733 15.27-3.679 5.373-5.518 8.625-5.518 9.756 0 .849-.566 2.404-1.698 4.666a283.96 283.96 0 01-2.122 5.514c-1.981 3.111-4.669 8.625-8.065 16.543-3.396 7.636-5.518 13.15-6.367 16.543v22.906c0 7.07.424 12.584 1.273 16.543.849 3.959 2.406 8.059 4.669 12.301 1.132 1.98 2.972 4.383 5.518 7.211 2.547 2.828 4.103 4.666 4.669 5.514 1.981 1.98 3.538 3.394 4.669 4.242 1.415.566 3.113.848 5.094.848 2.264 0 5.235-.424 8.914-1.272zm165.622 32.662c-1.981-2.263-2.971-5.09-2.971-8.484 0-3.111 1.273-10.18 3.82-21.209 1.698-9.897 3.962-20.219 6.791-30.965l2.971-13.573c1.981-4.525 3.538-8.908 4.67-13.15 1.414-4.525 2.263-7.352 2.546-8.484-1.132 0-3.537.283-7.216.849-3.395.565-7.215 1.696-11.46 3.393-10.187 2.545-18.535 3.818-25.043 3.818-6.226 0-11.461-1.131-15.705-3.394-3.962-2.262-7.499-5.938-10.612-11.028-1.414-1.414-2.688-3.818-3.82-7.211a41.81 41.81 0 01-1.273-10.181c0-3.959.707-6.504 2.122-7.635a1104.51 1104.51 0 003.82-8.483c1.415-2.545 2.547-4.808 3.396-6.787 3.113-6.222 4.669-9.756 4.669-10.605 0-.565.283-1.413.849-2.545.849-1.414 1.273-2.545 1.273-3.393 2.547-5.373 10.329-17.674 23.346-36.904 13.299-19.512 22.072-31.389 26.316-35.63 2.547-1.132 4.952-1.98 7.216-2.546 2.547-.565 4.245-.424 5.094.425 1.131 2.545 2.263 6.08 3.395 10.604 1.132 4.524 1.274 6.787.425 6.787-.283 0-.708.141-1.274.424-.566.283-.849.848-.849 1.697 0 1.696-4.527 7.918-13.582 18.664-16.413 22.34-29.288 42.135-38.626 59.385-3.679 10.745-5.518 17.532-5.518 20.36 0 1.414.424 2.545 1.273 3.393 1.698.566 3.82.849 6.367.849 6.791 0 15.988-1.697 27.59-5.09 13.583-2.828 21.93-4.949 25.043-6.363 2.264 0 4.245-.424 5.943-1.273 1.98-.848 2.971-1.838 2.971-2.969 0-.848.99-3.393 2.971-7.635 2.264-4.524 3.679-7.777 4.245-9.756l6.367-12.725c5.659-11.877 9.621-19.654 11.884-23.33 5.094-11.029 8.49-18.805 10.187-23.33 1.981-4.807 3.538-8.342 4.67-10.604 1.414-2.546 2.405-3.818 2.971-3.818 1.415 0 3.112.566 5.093 1.697 1.981 1.13 3.396 2.686 4.245 4.666 1.132 1.13 1.981 2.262 2.547 3.393A6.2 6.2 0 01445 29.608c0 1.414-.849 3.817-2.547 7.21-.849 3.394-1.839 6.505-2.971 9.333-1.132 2.827-2.688 6.08-4.669 9.756l-6.791 13.15c-7.358 14.421-15.847 32.52-25.468 54.294-9.338 21.492-15.564 37.186-18.676 47.084-3.679 10.463-6.65 19.371-8.914 26.723-2.264 7.352-3.396 12.725-3.396 16.119 0 2.545.708 5.231 2.123 8.059.283 5.09-.991 9.473-3.82 13.15-2.83 3.676-5.801 5.514-8.914 5.514-3.396 0-5.518-1.838-6.367-5.514z" fill="#BC1F29"/></svg>